# xmcd CD database file
#
# Track frame offsets:
#	150
#	21340
#	37970
#	55038
#	69203
#	83290
#	107043
#	124405
#	143770
#	176583
#	197170
#	213130
#	230135
#	247303
#	263733
#	279288
#
# Disc length: 3946 seconds
#
# Revision: 0
# Processed by: cddbd v1.5.1PL2 Copyright (c) Steve Scherf et al.
# Submitted via: CDex 1.51
#
DISCID=de0f6810
DTITLE=Paul McCartney - Good Sign - The Completed CD - Collection Vol.3
DYEAR=1900
DGENRE=Rock
TTITLE0=Spies Like Us
TTITLE1=Ode To A Koala Bear
TTITLE2=Ebony and Ivory (Solo Version)
TTITLE3=Rainclouds
TTITLE4=I'll Give You A Ring
TTITLE5=Hanglide
TTITLE6=Coming Up [LIVE]
TTITLE7=Good Night Tonight
TTITLE8=Good Night Tonight [12" Extended Version]
TTITLE9=Girls School [7" -1.15 Longer Than CD]
TTITLE10=Letting Go [7" Mix - Diff To LP]
TTITLE11=Give Ireland Back To Irish
TTITLE12=Give Ireland Back To Irish [Instrumental]
TTITLE13=Seaside Woman [80's Remix]
TTITLE14=B-Side To Seaside [80's Remix]
TTITLE15=Helen Wheels
EXTD=
EXTT0=
EXTT1=
EXTT2=
EXTT3=
EXTT4=
EXTT5=
EXTT6=
EXTT7=
EXTT8=
EXTT9=
EXTT10=
EXTT11=
EXTT12=
EXTT13=
EXTT14=
EXTT15=
PLAYORDER=
